<?xml version="1.0" encoding="utf-8"?>
<!-- Generator: Adobe Illustrator 18.0.0, SVG Export Plug-In . SVG Version: 6.00 Build 0)  -->
<!DOCTYPE svg PUBLIC "-//W3C//DTD SVG 1.1//EN" "http://www.w3.org/Graphics/SVG/1.1/DTD/svg11.dtd">
<svg version="1.1" id="Ebene_1" xmlns="http://www.w3.org/2000/svg" xmlns:xlink="http://www.w3.org/1999/xlink" x="0px" y="0px"
	 viewBox="0 0 512 512" enable-background="new 0 0 512 512" xml:space="preserve">
<path fill-rule="evenodd" clip-rule="evenodd" fill="#010202" d="M213.2,116.2l17.7,17.7l-124,124l-17.7-17.7L213.2,116.2z"/>
<path fill-rule="evenodd" clip-rule="evenodd" fill="#010202" d="M203.2,141.8l17.7-17.7l115,115l-17.7,17.7L203.2,141.8z"/>
<path fill-rule="evenodd" clip-rule="evenodd" fill="#010202" d="M273,241h25v139h-25V241z"/>
<path fill-rule="evenodd" clip-rule="evenodd" fill="#010202" d="M132,239h25v138h-25V239z"/>
<path fill-rule="evenodd" clip-rule="evenodd" fill="#010202" d="M116,248v-25h198v25H116z"/>
<path fill-rule="evenodd" clip-rule="evenodd" fill="#010202" d="M210,312h25v70h-25V312z"/>
<path fill-rule="evenodd" clip-rule="evenodd" fill="#010202" d="M192,312h25v66h-25V312z"/>
<path display="none" fill="#E52420" d="M416,240c-0.2,0-0.3,0-0.5,0c-4-36-34.5-64-71.5-64c-16,0-30.7,5.2-42.7,14
	c-14.9-45.3-57.5-78-107.8-78C130.8,112,80,162.8,80,225.5c0,5.5,0.4,10.9,1.2,16.2C53,248.4,32,273.8,32,304c0,35.3,28.7,64,64,64
	c25.4,0,47.3-14.8,57.7-36.2c12.4,4.6,25.8,7.2,39.8,7.2c38.3,0,72.2-19,92.7-48c13.1,17.6,34.1,29,57.8,29c3.3,0,6.6-0.2,9.9-0.7
	c6.9,27.9,32.1,48.7,62.1,48.7c35.3,0,64-28.7,64-64S451.3,240,416,240z"/>
<g>
	<path display="none" fill="none" d="M415,285v83c0.3,0,0.7,0,1,0c35.3,0,64-28.7,64-64s-28.7-64-64-64c-0.2,0-0.3,0-0.5,0
		c-4-36-34.5-64-71.5-64c-16,0-30.7,5.2-42.7,14c-14.9-45.3-57.5-78-107.8-78C130.8,112,80,162.8,80,225.5c0,5.5,0.4,10.9,1.2,16.2
		C53,248.4,32,273.8,32,304c0,35,28.1,63.4,63,64v-83H415z"/>
	<path display="none" fill="#010202" d="M153.7,331.8c12.4,4.6,25.8,7.2,39.8,7.2c38.3,0,72.2-19,92.7-48c13.1,17.6,34.1,29,57.8,29
		c3.3,0,6.6-0.2,9.9-0.7c6.8,27.6,31.5,48.2,61.1,48.7v-83H95v83c0.3,0,0.7,0,1,0C121.4,368,143.3,353.2,153.7,331.8z"/>
	<path display="none" fill="#010202" d="M332.5,351.4c-17-1.9-32.7-7.8-46.3-16.9C261,356,228.3,369,192.5,369
		c-8.2,0-16.2-0.7-24.1-2c-17.6,20.2-43.5,33-72.4,33c-0.3,0-0.7,0-1,0v5h320v-5C379.6,399.6,348.8,380.1,332.5,351.4z"/>
	<path display="none" fill="#010202" d="M353.9,319.3c-3.2,0.4-6.5,0.7-9.9,0.7c-23.7,0-44.7-11.4-57.8-29
		c-20.6,29.1-54.4,48-92.7,48c-14,0-27.4-2.5-39.8-7.2C143.3,353.2,121.4,368,96,368c-0.3,0-0.7,0-1,0v32c0.3,0,0.7,0,1,0
		c28.9,0,54.8-12.8,72.4-33c7.8,1.3,15.9,2,24.1,2c35.8,0,68.5-13,93.7-34.5c13.5,9,29.3,15,46.3,16.9
		c16.4,28.8,47.1,48.3,82.5,48.6v-32C385.4,367.5,360.6,346.9,353.9,319.3z"/>
</g>
<path fill="#010202" d="M441.4,211.4C426.6,172,388.6,144,344,144c-10,0-19.7,1.4-28.9,4.1C289.6,107.2,244.2,80,192.5,80
	C113.9,80,50,142.7,48,220.8C19.3,237.4,0,268.4,0,304c0,52.7,42.4,95.5,95,96v0h320.1v0c0.3,0,0.6,0,0.9,0c53,0,96-43,96-96
	C512,259.8,482.1,222.5,441.4,211.4z M416,368c-0.3,0-0.7,0-1,0v0H95v0c-34.9-0.5-63-29-63-64c0-30.2,21-55.6,49.2-62.3
	c-0.8-5.3-1.2-10.7-1.2-16.2C80,162.8,130.8,112,193.5,112c50.3,0,92.9,32.7,107.8,78c11.9-8.8,26.7-14,42.7-14
	c37.1,0,67.6,28,71.5,64c0.2,0,0.3,0,0.5,0c35.3,0,64,28.7,64,64S451.3,368,416,368z"/>
</svg>
