<?xml version="1.0" encoding="utf-8"?>
<!-- Generator: Adobe Illustrator 18.0.0, SVG Export Plug-In . SVG Version: 6.00 Build 0)  -->
<!DOCTYPE svg PUBLIC "-//W3C//DTD SVG 1.1//EN" "http://www.w3.org/Graphics/SVG/1.1/DTD/svg11.dtd">
<svg version="1.1" id="Ebene_1" xmlns="http://www.w3.org/2000/svg" xmlns:xlink="http://www.w3.org/1999/xlink" x="0px" y="0px"
	 viewBox="0 0 4096 620" enable-background="new 0 0 4096 620" xml:space="preserve">
<path opacity="0.25" d="M4100,2H-2.4v176.1C65.5,234.1,180.3,271,310.5,271c80.1,0,154.3-13.9,215.4-37.7
	c42.5,50,105.8,81.7,176.6,81.7c39.6,0,76.9-9.9,109.5-27.4c78.9,119.6,249,202.4,446,202.4c116.8,0,224.2-29.1,308.7-77.7
	c29.7,4.4,60.8,6.7,92.8,6.7c100.2,0,191.3-22.9,259.4-60.3c29.7,38.9,86.7,65.3,152.1,65.3c64.6,0,121-25.7,151-63.9
	c83,26.7,178,41.9,279,41.9c237.3,0,441.8-83.9,535.1-204.7c41.8,56.2,127.7,94.7,226.9,94.7c99.6,0,185.7-38.8,227.4-95.3
	c36.8,28.1,86.3,45.3,140.6,45.3c65.8,0,124.4-25.2,162.1-64.3c39.9,13.9,92,22.3,148.9,22.3c61.3,0,117-9.8,158-25.7V2z"/>
<path fill="#5C6BC0" d="M4100-6H-2.4v176.1C65.5,226.1,180.3,263,310.5,263c80.1,0,154.3-13.9,215.4-37.7
	c42.5,50,105.8,81.7,176.6,81.7c39.6,0,76.9-9.9,109.5-27.4c78.9,119.6,249,202.4,446,202.4c116.8,0,224.2-29.1,308.7-77.7
	c29.7,4.4,60.8,6.7,92.8,6.7c100.2,0,191.3-22.9,259.4-60.3c29.7,38.9,86.7,65.3,152.1,65.3c64.6,0,121-25.7,151-63.9
	c83,26.7,178,41.9,279,41.9c237.3,0,441.8-83.9,535.1-204.7c41.8,56.2,127.7,94.7,226.9,94.7c99.6,0,185.7-38.8,227.4-95.3
	c36.8,28.1,86.3,45.3,140.6,45.3c65.8,0,124.4-25.2,162.1-64.3c39.9,13.9,92,22.3,148.9,22.3c61.3,0,117-9.8,158-25.7V-6z"/>
</svg>
