<?xml version="1.0" encoding="utf-8"?>
<!-- Generator: Adobe Illustrator 18.0.0, SVG Export Plug-In . SVG Version: 6.00 Build 0)  -->
<!DOCTYPE svg PUBLIC "-//W3C//DTD SVG 1.1//EN" "http://www.w3.org/Graphics/SVG/1.1/DTD/svg11.dtd">
<svg version="1.1" id="Ebene_1" xmlns="http://www.w3.org/2000/svg" xmlns:xlink="http://www.w3.org/1999/xlink" x="0px" y="0px"
	 viewBox="0 0 4096 620" enable-background="new 0 0 4096 620" xml:space="preserve">
<rect x="-1" y="-1" fill="#5C6BC0" width="4098" height="622"/>
<path opacity="0.25" d="M4097,613V435.2c-96.9-28.6-211.9-45.2-335.2-45.2c-48.4,0-95.6,2.6-140.8,7.4
	C3564.7,333.6,3480,293,3385.3,293c-66.3,0-127.7,19.9-177.9,53.7c-81.6-70.2-212.8-115.7-360.6-115.7c-129,0-245.3,34.7-327,90.1
	c-69.3-105.2-239.2-179.6-437.9-179.6c-66.3,0-129.5,8.3-186.7,23.3c-59.6-33.2-136.9-53.3-221.3-53.3
	c-90.9,0-173.5,23.3-234.8,61.2c-18-1.4-36.5-2.2-55.2-2.2c-109,0-207.6,25-279.1,65.5c-84.6-52.6-216.7-86.4-365.2-86.4
	c-176.6,0-330,47.9-407.9,118.2c-36.3-11.5-78.2-18-122.8-18c-88.1,0-165.5,25.5-209.9,63.9V613H4097z"/>
<path fill="#FFFFFF" d="M4097,621V443.2c-96.9-28.6-211.9-45.2-335.2-45.2c-48.4,0-95.6,2.6-140.8,7.4
	C3564.7,341.6,3480,301,3385.3,301c-66.3,0-127.7,19.9-177.9,53.7c-81.6-70.2-212.8-115.7-360.6-115.7c-129,0-245.3,34.7-327,90.1
	c-69.3-105.2-239.2-179.6-437.9-179.6c-66.3,0-129.5,8.3-186.7,23.3c-59.6-33.2-136.9-53.3-221.3-53.3
	c-90.9,0-173.5,23.3-234.8,61.2c-18-1.4-36.5-2.2-55.2-2.2c-109,0-207.6,25-279.1,65.5c-84.6-52.6-216.7-86.4-365.2-86.4
	c-176.6,0-330,47.9-407.9,118.2c-36.3-11.5-78.2-18-122.8-18c-88.1,0-165.5,25.5-209.9,63.9V621H4097z"/>
</svg>
