<?xml version="1.0" encoding="utf-8"?>
<!-- Generator: Adobe Illustrator 18.0.0, SVG Export Plug-In . SVG Version: 6.00 Build 0)  -->
<!DOCTYPE svg PUBLIC "-//W3C//DTD SVG 1.1//EN" "http://www.w3.org/Graphics/SVG/1.1/DTD/svg11.dtd">
<svg version="1.1" id="Ebene_1" xmlns="http://www.w3.org/2000/svg" xmlns:xlink="http://www.w3.org/1999/xlink" x="0px" y="0px"
	 viewBox="0 0 4096 620" enable-background="new 0 0 4096 620" xml:space="preserve">
<path fill="#5C6BC0" d="M4108,308c-35.8,5.2-67.4,17-91,33.1c-46.8-65.4-170.6-112.1-316-112.1c-85,0-162.6,16-221.7,42.3
	c-34-14.1-75.1-22.3-119.3-22.3c-33.2,0-64.6,4.6-92.7,12.9C3209.6,186.8,3087.9,135,2947,135c-96.7,0-184.5,24.4-248.6,64.1
	c-35-17.6-78.8-28.1-126.4-28.1c-0.6,0-1.3,0-1.9,0C2523,90.1,2408.2,33,2274,33c-115.4,0-216.6,42.3-272.6,105.6
	C1906.4,95.9,1792.9,71,1671,71c-230.3,0-430.6,88.7-533.4,219.4c-50.4-58.2-147.8-97.6-259.7-97.6c-130.3,0-240.9,53.4-280.6,127.7
	c-38.6-81.2-159.9-140.4-303.7-140.4C153.5,180.1,34.6,236.5-7,314.6v324.7h4115V308z"/>
</svg>
