<?xml version="1.0" encoding="utf-8"?>
<!-- Generator: Adobe Illustrator 18.0.0, SVG Export Plug-In . SVG Version: 6.00 Build 0)  -->
<!DOCTYPE svg PUBLIC "-//W3C//DTD SVG 1.1//EN" "http://www.w3.org/Graphics/SVG/1.1/DTD/svg11.dtd">
<svg version="1.1" id="Ebene_1" xmlns="http://www.w3.org/2000/svg" xmlns:xlink="http://www.w3.org/1999/xlink" x="0px" y="0px"
	 viewBox="0 0 18 18" enable-background="new 0 0 18 18" xml:space="preserve">
<path fill="#FFFFFF" d="M7.5,4.1l0.6,0.6L3.8,9.1L3.1,8.4L7.5,4.1z"/>
<path fill="#FFFFFF" d="M7.1,5l0.6-0.6l4,4L11.2,9L7.1,5z"/>
<path fill="#FFFFFF" d="M9.6,8.5h0.9v4.9H9.6V8.5z"/>
<path fill="#FFFFFF" d="M4.6,8.4h0.9v4.9H4.6V8.4z"/>
<path fill="#FFFFFF" d="M4.1,8.7V7.8h7v0.9H4.1z"/>
<path fill="#FFFFFF" d="M7.4,11h0.9v2.5H7.4V11z"/>
<path fill="#FFFFFF" d="M6.8,11h0.9v2.3H6.8V11z"/>
<path display="none" fill="#E52420" d="M14.6,8.4C14.6,8.4,14.6,8.4,14.6,8.4c-0.2-1.3-1.2-2.3-2.5-2.3c-0.6,0-1.1,0.2-1.5,0.5
	c-0.5-1.6-2-2.7-3.8-2.7c-2.2,0-4,1.8-4,4c0,0.2,0,0.4,0,0.6c-1,0.2-1.7,1.1-1.7,2.2c0,1.2,1,2.3,2.3,2.3c0.9,0,1.7-0.5,2-1.3
	c0.4,0.2,0.9,0.3,1.4,0.3c1.3,0,2.5-0.7,3.3-1.7c0.5,0.6,1.2,1,2,1c0.1,0,0.2,0,0.3,0c0.2,1,1.1,1.7,2.2,1.7c1.2,0,2.3-1,2.3-2.3
	S15.9,8.4,14.6,8.4z"/>
<g>
	<path display="none" fill="none" d="M14.6,10v2.9c0,0,0,0,0,0c1.2,0,2.3-1,2.3-2.3s-1-2.3-2.3-2.3c0,0,0,0,0,0
		c-0.1-1.3-1.2-2.3-2.5-2.3c-0.6,0-1.1,0.2-1.5,0.5c-0.5-1.6-2-2.7-3.8-2.7c-2.2,0-4,1.8-4,4c0,0.2,0,0.4,0,0.6
		c-1,0.2-1.7,1.1-1.7,2.2c0,1.2,1,2.2,2.2,2.3V10H14.6z"/>
	<path display="none" fill="#010202" d="M5.4,11.7c0.4,0.2,0.9,0.3,1.4,0.3c1.3,0,2.5-0.7,3.3-1.7c0.5,0.6,1.2,1,2,1
		c0.1,0,0.2,0,0.3,0c0.2,1,1.1,1.7,2.1,1.7V10H3.3v2.9c0,0,0,0,0,0C4.3,12.9,5,12.4,5.4,11.7z"/>
	<path display="none" fill="#010202" d="M11.7,12.4c-0.6-0.1-1.1-0.3-1.6-0.6C9.2,12.5,8,13,6.8,13c-0.3,0-0.6,0-0.8-0.1
		c-0.6,0.7-1.5,1.2-2.5,1.2c0,0,0,0,0,0v0.2h11.3v-0.2C13.3,14,12.3,13.4,11.7,12.4z"/>
	<path display="none" fill="#010202" d="M12.4,11.2c-0.1,0-0.2,0-0.3,0c-0.8,0-1.6-0.4-2-1c-0.7,1-1.9,1.7-3.3,1.7
		c-0.5,0-1-0.1-1.4-0.3c-0.4,0.8-1.1,1.3-2,1.3c0,0,0,0,0,0v1.1c0,0,0,0,0,0c1,0,1.9-0.4,2.5-1.2c0.3,0,0.6,0.1,0.8,0.1
		c1.3,0,2.4-0.5,3.3-1.2c0.5,0.3,1,0.5,1.6,0.6c0.6,1,1.7,1.7,2.9,1.7v-1.1C13.5,12.9,12.7,12.2,12.4,11.2z"/>
</g>
<path fill="#FFFFFF" d="M15.5,7.4C15,6,13.7,5.1,12.1,5.1c-0.4,0-0.7,0-1,0.1c-0.9-1.4-2.5-2.4-4.3-2.4c-2.8,0-5,2.2-5.1,5
	C0.7,8.3,0,9.4,0,10.7c0,1.9,1.5,3.4,3.3,3.4l0,0h11.3l0,0c0,0,0,0,0,0c1.9,0,3.4-1.5,3.4-3.4C18,9.1,16.9,7.8,15.5,7.4z M14.6,12.9
	C14.6,12.9,14.6,12.9,14.6,12.9L14.6,12.9H3.3l0,0c-1.2,0-2.2-1-2.2-2.3c0-1.1,0.7-2,1.7-2.2c0-0.2,0-0.4,0-0.6c0-2.2,1.8-4,4-4
	c1.8,0,3.3,1.1,3.8,2.7c0.4-0.3,0.9-0.5,1.5-0.5c1.3,0,2.4,1,2.5,2.3c0,0,0,0,0,0c1.2,0,2.3,1,2.3,2.3S15.9,12.9,14.6,12.9z"/>
</svg>
